<?xml version="1.0" encoding="utf-8"?>
<!-- Generator: Adobe Illustrator 25.4.1, SVG Export Plug-In . SVG Version: 6.00 Build 0)  -->
<svg version="1.1" id="Layer_1" xmlns="http://www.w3.org/2000/svg" xmlns:xlink="http://www.w3.org/1999/xlink" x="0px" y="0px"
	 viewBox="0 0 179 170" style="enable-background:new 0 0 179 170;" xml:space="preserve">
<g>
	<path d="M168.17,45.33c-0.83-1.5-1.61-3.01-2.53-4.45l-1.34-2.18l-1.43-2.12c-1.92-2.82-4.07-5.46-6.27-8.03
		c-4.47-5.1-9.58-9.59-15.04-13.49c-5.45-3.92-11.42-7.05-17.58-9.5c-6.17-2.47-12.62-4.09-19.12-4.9
		c-6.5-0.81-13.04-0.89-19.43-0.11c-6.39,0.8-12.63,2.31-18.52,4.63c12.42-2.36,25.08-1.8,36.78,1.37
		c5.86,1.57,11.43,3.95,16.67,6.79c5.23,2.87,10.1,6.3,14.48,10.24c4.4,3.92,8.28,8.34,11.7,13.04c1.66,2.39,3.26,4.81,4.65,7.35
		l1.07,1.88l0.98,1.93c0.68,1.27,1.23,2.6,1.83,3.91c2.33,5.26,3.99,10.77,5.15,16.35l0.42,2.1l0.33,2.11
		c0.26,1.4,0.38,2.82,0.55,4.23c0.19,1.41,0.2,2.84,0.32,4.26l0.14,4.29c-0.01,43.05-32.66,77.08-72.96,77.08
		c-40.29,0-72.96-34.02-72.96-77.08c0.19-9.02,1.9-18,5.28-26.45c1.69-4.22,3.77-8.31,6.3-12.15c2.48-3.88,5.43-7.46,8.66-10.82
		c6.49-6.71,14.54-12.04,23.52-15.62c8.99-3.57,18.97-5.15,29.21-4.81c-9.74-3.21-20.57-3.91-31.11-1.89
		c-10.54,1.98-20.77,6.61-29.47,13.39c-4.39,3.35-8.33,7.29-11.9,11.56c-3.53,4.31-6.58,9.05-9.06,14.08
		C2.5,62.36-0.18,73.72,0.01,85.01c0.01,47.47,39.85,84.99,89,84.99c49.15,0,89-37.52,89.01-84.99
		C178.01,71.22,174.59,57.41,168.17,45.33z"/>
	<g>
		<path d="M60.71,75.27c0.38,0.5,0.44,1.06,0.43,1.55l0,0v13.21L50.27,74.9h-2.63l0.42,0.58c0.31,0.43,0.48,0.95,0.48,1.49v18.09
			h1.7l-0.28-0.37c-0.38-0.5-0.44-1.06-0.43-1.55l0,0V77.53l12.6,17.54V74.9h-1.7L60.71,75.27z"/>
		<path d="M35.17,95.08h9.36v-0.99h-7.49V83.94h6.68v-0.99h-6.68v-7.04h5.58l-0.01,0c0.5,0,1.06,0.06,1.55,0.43l0.37,0.28v-1.7
			h-9.36V95.08z"/>
		<path d="M102,74.92h-2.14c0.27,0.63,0.27,1.35,0,1.98l-7.7,18.19l0,0h0h1.08h0.66c-0.24-0.41-0.27-0.91-0.09-1.35l2.46-5.8h9.1
			l3.02,7.15h2.14L102,74.92z M96.69,86.94l4.13-9.77l4.13,9.77H96.69z"/>
		<path d="M134.32,74.92h-2.14c0.27,0.63,0.27,1.35,0,1.98l-7.7,18.19l0,0h0h1.08h0.66c-0.24-0.41-0.27-0.91-0.09-1.35l2.46-5.8h9.1
			l3.02,7.15h2.14L134.32,74.92z M129.01,86.94l4.13-9.77l4.13,9.77H129.01z"/>
		<path d="M83.63,94.33c-4.93,0-8.93-4.18-8.93-9.33s4-9.33,8.93-9.33c2.08,0.07,3.88,0.8,5.35,2.02L90,76.33
			c-1.87-0.98-3.96-1.56-6.36-1.65c-5.97,0-10.8,4.62-10.8,10.32c0,5.7,4.84,10.32,10.8,10.32v0c2.61,0,4.98-1.06,6.76-2.79
			l-0.64-0.75C88.15,93.35,86,94.33,83.63,94.33z"/>
		<path d="M112.53,92.44l0.81-0.52c0.94,1.44,2.24,2.3,3.89,2.27c2.06-0.03,3.42-1.46,3.42-3.34c0-2.3-1.2-3.73-3.65-6.08
			c-1.67-1.7-3.65-3.26-3.65-6.26c0-2.14,1.8-3.81,4.02-3.81c1.91,0,3.26,1.07,4.39,2.56l-0.81,0.55c-0.84-1.17-2.09-2.11-3.39-2.11
			c-1.54,0-2.71,1.23-2.71,2.58c0,2.17,1.51,3.21,3.47,5.19c2.79,2.66,3.99,4.44,3.99,7.02c0,2.87-2.09,4.83-4.99,4.83
			C115.4,95.31,113.65,94.11,112.53,92.44z"/>
	</g>
</g>
</svg>
