<svg id="Capa_1" data-name="Capa 1" xmlns="http://www.w3.org/2000/svg" viewBox="0 0 562.81 200">
  <path d="M197.55,162.63a18.69,18.69,0,1,1-18.29,18.67A18.53,18.53,0,0,1,197.55,162.63ZM183.49,181.3a14.06,14.06,0,1,0,14.06-14.43A14.32,14.32,0,0,0,183.49,181.3Z" />
  <path d="M245.12,163.24v31.85h14.71v4.25h-19v-36.1Z" />
  <path d="M289.81,163.24v36.1h-4.26v-36.1Z" />
  <path d="M319.44,163.24l8.37,24.06L336,163.24h4.38L328,199.55h-.22l-12.7-36.31Z" />
  <path d="M372.54,163.21a11,11,0,0,1,11,11v25.12H379.3V190.9H365.77v8.44h-4.26V174.22A11,11,0,0,1,372.54,163.21Zm-6.77,23.44H379.3V174.22a6.77,6.77,0,0,0-13.53,0Z" />
  <rect x="82.55" width="15.01" height="90.05" />
  <rect x="457.75" width="15.01" height="90.05" />
  <path d="M532.79,0a30,30,0,0,0-30,30v60h15V75h30v15h15V30A30.06,30.06,0,0,0,532.79,0Zm-15,60V30a15,15,0,1,1,30,0V60Z" />
  <path d="M15,0H0V90.05H15V75h0A37.52,37.52,0,0,0,15,0Zm0,60h0V15h0a22.51,22.51,0,0,1,0,45Z" />
  <path d="M337.69,75a30,30,0,0,1-29-22.51h21.52v-15H307.67V15h37.52V0H292.66V45h0a45.08,45.08,0,0,0,45,45h7.5V75Z" />
  <path d="M420.23,75a29.87,29.87,0,0,1-14.17-3.56A37.49,37.49,0,0,0,390.22,0h-15V90.05h15V78.6a44.59,44.59,0,0,0,30,11.45h7.51V75Zm-30-60h0a22.51,22.51,0,0,1,0,45h0Z" />
  <polygon points="180.09 90.05 127.57 90.05 157.85 15.01 127.57 15.01 127.57 0 180.1 0 149.82 75.04 180.09 75.04 180.09 90.05" />
  <polygon points="262.64 90.05 210.12 90.05 240.4 15.01 210.12 15.01 210.12 0 262.64 0 232.36 75.04 262.64 75.04 262.64 90.05" />
</svg>