<svg id="Capa_1" data-name="Capa 1" xmlns="http://www.w3.org/2000/svg" viewBox="0 0 675.47 675.47"><path d="M337.74,567.35c-126.61,0-229.62-103-229.62-229.61s103-229.61,229.62-229.61,229.61,103,229.61,229.61S464.34,567.35,337.74,567.35Zm0-454.12c-123.8,0-224.52,100.71-224.52,224.51S213.94,562.25,337.74,562.25,562.25,461.53,562.25,337.74,461.53,113.23,337.74,113.23Z"/><path d="M337.74,675.47C151.51,675.47,0,524,0,337.74S151.51,0,337.74,0,675.47,151.51,675.47,337.74,524,675.47,337.74,675.47Zm0-670.37C154.32,5.1,5.1,154.32,5.1,337.74S154.32,670.37,337.74,670.37,670.37,521.15,670.37,337.74,521.15,5.1,337.74,5.1Z"/><path d="M38.51,288.94l1.1-5.13,30.29-3.76-26.14-15.6,1.1-5.14,39.43,23.61-.06.26Z"/><path d="M91.58,254.71,51.21,239.2,59.36,218l4.76,1.83L57.8,236.27l16,6.15,5.42-14.11L84,230.14l-5.42,14.11,10,3.87L95,231.67l4.76,1.83Z"/><path d="M68.87,198.08l3.33-5.85c4.48-7.9,14-10.73,21.54-6.43a15.65,15.65,0,0,1,8,13.25l16.47-.22-2.91,5.11-14.23.21a18,18,0,0,1-1.37,3.32l-.93,1.69L109,215l-2.51,4.44Zm25.42,8.57.92-1.63a10.86,10.86,0,0,0-4-14.79c-5.17-2.93-11.46-1-14.6,4.51l-.81,1.42Z"/><path d="M102.83,167.85a13.2,13.2,0,0,1,16.45-20.65l23.53,18.74-3.17,4-7.91-6.3-10.1,12.68,7.91,6.3-3.18,4Zm14.82,5.28,10.09-12.68-11.64-9.26A8.1,8.1,0,0,0,106,163.86Z"/><path d="M150.57,99.54l5.43-4a15.92,15.92,0,0,1,12-3.16,14.55,14.55,0,0,1,10.34,6.11,15.94,15.94,0,0,1-3.47,22.25l-1.56,1.14,7,9.52-4.11,3Zm19.7,18.25,1.51-1.1a10.87,10.87,0,0,0,2.4-15.15c-3.51-4.79-10-5.63-15.17-1.86l-1.31,1Z"/><path d="M191,72.94l21.29,37.59L207.82,113l-21.3-37.59Z"/><path d="M212.72,67.24l-1.95-4.71,24.9-10.31-4.28,43.1,17.91-7.41,1.95,4.71-25.8,10.68,4.28-43.1Z"/><path d="M256.71,51l-1.18-5,26.2-6.23-11,41.84,18.84-4.48,1.18,4.95-27.15,6.46,11-41.84Z"/><path d="M302.73,50a13.21,13.21,0,0,1,26.34-2l2.24,30-5.09.38-.75-10.08-16.17,1.2.76,10.09L305,80Zm6.2,14.46,16.16-1.21L324,48.36a8.1,8.1,0,0,0-16.16,1.21Z"/><path d="M382,51.23a13.2,13.2,0,0,1,25.88,5.2L402,85.93l-5-1L399,75l-15.89-3.19-2,9.91-5-1Zm2.07,15.59L400,70l2.93-14.58A8.1,8.1,0,0,0,387,52.23Z"/><path d="M438,52,424.77,87.74l16.53,6.1-1.77,4.78-21.31-7.86,15-40.56Z"/><path d="M522,97.14l-3,4.2L504.63,91.22l-9.85,14,11.37,8-2.91,4.14-11.38-8-9.16,13-4.19-3,24.88-35.38Z"/><path d="M521.46,123.9c8.57-8.54,22.64-8.94,31.29-.27s8.19,22.74-.38,31.28-22.66,9-31.3.29S512.88,132.46,521.46,123.9Zm3.18,27.75c6.68,6.7,17.56,6.25,24.16-.33s7-17.41.36-24.12-17.52-6.29-24.12.29S518,144.94,524.64,151.65Z"/><path d="M580.21,156.14l3.84,5.52c5.18,7.46,3.63,17.24-3.53,22.21a15.65,15.65,0,0,1-15.39,1.43l-6.92,14.95-3.36-4.83,6-12.93a17.78,17.78,0,0,1-2.41-2.66l-1.12-1.57L547.63,185l-2.9-4.19Zm-18.72,19.21,1.06,1.53a10.86,10.86,0,0,0,15.06,2.81c4.88-3.39,5.88-9.89,2.25-15.12l-.93-1.34Z"/><path d="M568.15,217.82,566,213.25l38.94-18.69.05.11-16,32.48,25.65-12.28,2.2,4.59-39,18.67-.09-.19,15.78-32.17Z"/><path d="M604.42,246c11.71-3,24.06,3.73,27.13,15.59s-4.43,23.77-16.14,26.81-24.09-3.73-27.17-15.59S592.68,249.05,604.42,246Zm-11.3,25.55c2.38,9.17,12,14.28,21,11.94S629,272,626.64,262.87s-11.93-14.3-20.95-12S590.74,262.39,593.12,271.56Z"/><path d="M82.64,386.49l1.52,6.56a15.92,15.92,0,0,1-1.81,12.25,14.59,14.59,0,0,1-9.7,7.11,16,16,0,0,1-19.1-12l-.44-1.88-11.49,2.66-1.16-5ZM58.08,397.41l.43,1.82a10.86,10.86,0,0,0,13,8.18c5.8-1.34,9.13-7,7.7-13.21l-.37-1.59Z"/><path d="M92.08,422.31l2.46,6.27c3.32,8.46-.45,17.62-8.57,20.8a15.65,15.65,0,0,1-15.31-2.16L60.47,460.17l-2.15-5.48,8.8-11.2a18.6,18.6,0,0,1-1.72-3.15l-.73-1.79-11,4.3-1.87-4.75ZM69.41,436.69l.69,1.74a10.87,10.87,0,0,0,14,6.21c5.53-2.17,8-8.27,5.68-14.2l-.6-1.51Z"/><path d="M86.55,466c10.31-6.33,24.11-3.47,30.52,7s2.73,24-7.58,30.37-24.14,3.49-30.55-6.95S76.22,472.38,86.55,466Zm-3.31,27.75c5,8.08,15.65,10.15,23.59,5.27s10.88-15.33,5.92-23.4-15.6-10.18-23.54-5.3S78.28,485.71,83.24,493.78Z"/><path d="M139.87,505.85c8,9.21,8.37,22.63-1,31.06s-22.64,6.83-31-2l-4-4.46L136,501.52Zm-4.28,2.87L111,530.78l.55.61c6.7,7.15,17,7.91,23.88,1.73s7.24-16.31.58-23.91Z"/><path d="M149.65,547.83c7.36-9.61,21.26-11.88,31-4.43s11.15,21.47,3.79,31.07-21.28,11.9-31,4.45S142.27,557.45,149.65,547.83Zm6.83,27.09c7.52,5.76,18.25,3.87,23.92-3.53s4.67-18.2-2.85-24-18.21-3.92-23.88,3.48S149,569.16,156.48,574.92Z"/><path d="M203.78,566.09l2.39-4.51,19.91,10.59-2.4,4.5-7.48-4-18,33.81-4.53-2.41,18-33.81Z"/><path d="M235.38,581.93l1.77-4.79L258.3,585l-1.77,4.79-8-2.94-13.29,35.92-4.81-1.79L243.76,585Z"/><path d="M263.1,609.77c2.28-11.88,13.68-20.14,25.71-17.83s19.57,14.18,17.3,26.06-13.69,20.16-25.71,17.86S260.82,621.67,263.1,609.77Zm18.25,21.14c9.3,1.78,18-4.71,19.78-13.86s-4-18.36-13.28-20.14-18,4.66-19.77,13.81S272.05,629.13,281.35,630.91Z"/><path d="M357.73,596.6c12.17-1.08,23.23,6.54,24.54,19.08s-7.79,22.33-19.9,23.89l-6,.62-4.46-43Zm-.2,5.15,3.41,32.85.81-.09c9.73-1.22,16.4-9.1,15.45-18.31s-8.94-15.44-19-14.52Z"/><path d="M399.19,590l9.76,42.1-5,1.15-9.75-42.1Z"/><path d="M458.83,566.46a22.18,22.18,0,0,1,29.8,9.5,22.57,22.57,0,0,1,.73,19.59l6.68,4.1-5.2,2.76-4-2.46a21.24,21.24,0,0,1-7.06,6c-10.84,5.75-24.12,1.26-29.82-9.48S448,572.22,458.83,566.46Zm-4.42,27.65c4.37,8.23,14.66,11.79,23,7.36a16.38,16.38,0,0,0,5.08-4.19L475,592.6l5.16-2.77,4.92,3a17.3,17.3,0,0,0-.88-14.53c-4.35-8.2-14.59-11.86-22.95-7.42S450.06,585.9,454.41,594.11Z"/><path d="M492.94,546l18.43,23.1a8.59,8.59,0,1,0,13.43-10.72l-18.42-23.1,4-3.15,18.42,23.09a13.66,13.66,0,1,1-21.35,17L489,549.11Z"/><path d="M529.76,531.78a13.19,13.19,0,0,1,17.84-19.44l22.15,20.33-3.44,3.75-7.45-6.83-11,11.94,7.45,6.83-3.45,3.75Zm14.4,6.3,11-11.93-11-10A8.1,8.1,0,0,0,533.2,528Z"/><path d="M550.5,486.49l31.63,21.28L592,493.15l4.23,2.85-12.67,18.84-35.86-24.12Z"/><path d="M569.63,454.45,608,474.3l-2.34,4.53L567.29,459Z"/><path d="M580.66,443.06l-4.76-1.82L584,420.19l4.76,1.83-3,7.92,35.74,13.72-1.83,4.79-35.75-13.72Z"/><path d="M580.92,402l1.12-4.7,6.5-1.11-.81,3.4Zm9.31-4.08a13.21,13.21,0,0,1,15.88-9.77l29.25,7-1.18,5-9.83-2.34-3.75,15.76,9.83,2.33-1.18,5-29.25-7A13.2,13.2,0,0,1,590.23,397.92Zm29.16-1.37-14.46-3.44a8.1,8.1,0,0,0-3.75,15.76l14.46,3.44Z"/><path d="M198.74,278.65h6.72A15.89,15.89,0,0,1,217,283.18a14.54,14.54,0,0,1,4.74,11,16,16,0,0,1-15.95,15.89h-1.93v11.78h-5.1Zm5.1,26.36h1.87a10.87,10.87,0,0,0,10.88-10.79c0-6-4.77-10.47-11.13-10.47h-1.62Z"/><path d="M243.33,278.68v43.21h-5.09V278.68Z"/><path d="M261.68,283.75v-5.1h26.93L268.19,316.8h19.37v5.09h-27.9l20.42-38.14Z"/><path d="M304.16,283.75v-5.1h26.93L310.68,316.8H330v5.09h-27.9l20.42-38.14Z"/><path d="M346.74,321.89V278.68h22.7v5.1h-17.6v17.13h15.1V306h-15.1V316.8h17.6v5.09Z"/><path d="M386.54,278.68h6.72c9.07,0,16.22,6.85,16.22,15.56a15.64,15.64,0,0,1-7.6,13.45l8.33,14.2h-5.88l-7.21-12.27a18.87,18.87,0,0,1-3.56.46l-1.93,0v11.75h-5.09ZM391.63,305h1.87a10.86,10.86,0,0,0,10.89-10.77c0-5.94-4.77-10.46-11.13-10.46h-1.63Z"/><path d="M432.27,278.68v43.21h-5.09V278.68Z"/><path d="M450.35,291.83a13.19,13.19,0,0,1,26.38,0v30.06h-5.09v-10.1H455.45v10.1h-5.1Zm5.1,14.86h16.19V291.83a8.1,8.1,0,0,0-16.19,0Z"/><path d="M242.66,374.45c0-12.1,9.65-22.35,21.89-22.35s21.89,10.25,21.89,22.35-9.65,22.37-21.89,22.37S242.66,386.57,242.66,374.45Zm21.89,17.33c9.47,0,16.82-8,16.82-17.33s-7.35-17.28-16.82-17.28-16.83,8-16.83,17.28S255.08,391.78,264.55,391.78Z"/><path d="M307.25,352.83v38.11h17.61V396h-22.7V352.83Z"/><path d="M346.51,352.83V396h-5.1V352.83Z"/><path d="M362.51,352.83h5.24l10,28.79,9.77-28.79h5.25L378,396.28h-.27Z"/><path d="M403.87,366a13.19,13.19,0,0,1,26.38,0V396h-5.09V385.93H409V396h-5.09ZM409,380.84h16.2V366a8.1,8.1,0,0,0-16.2,0Z"/></svg>