<svg id="Capa_1" data-name="Capa 1" xmlns="http://www.w3.org/2000/svg" viewBox="0 0 675.47 675.47"><path d="M337.74,567.35c-126.61,0-229.62-103-229.62-229.61s103-229.62,229.62-229.62,229.61,103,229.61,229.62S464.34,567.35,337.74,567.35Zm0-454.13c-123.8,0-224.52,100.72-224.52,224.52s100.72,224.5,224.52,224.5,224.51-100.71,224.51-224.5S461.53,113.22,337.74,113.22Z"/><path d="M337.74,675.47C151.51,675.47,0,524,0,337.74S151.51,0,337.74,0,675.47,151.51,675.47,337.74,524,675.47,337.74,675.47Zm0-670.37C154.32,5.1,5.1,154.32,5.1,337.74S154.32,670.37,337.74,670.37,670.37,521.15,670.37,337.74,521.15,5.1,337.74,5.1Z"/><path d="M91.33,161.51l4.1-5.34A15.93,15.93,0,0,1,106,149.79a14.55,14.55,0,0,1,11.64,3,15.94,15.94,0,0,1,2.87,22.34l-1.17,1.53,9.35,7.19-3.11,4Zm24,12,1.14-1.48a10.88,10.88,0,0,0-1.93-15.22c-4.71-3.62-11.2-2.6-15.08,2.45l-1,1.29Z"/><path d="M122.7,124.67l31,30.16-3.56,3.65-30.95-30.17Z"/><path d="M142,113.12l-3.2-4,21-16.88,8,42.57,15.11-12.14,3.2,4-21.77,17.49-8-42.57Z"/><path d="M179.6,85.23l-2.53-4.43,23.39-13.36,1.2,43.27,16.81-9.61,2.53,4.43-24.23,13.84L195.58,76.1Z"/><path d="M234.81,99.22l-15.5-40.37,21.21-8.14,1.83,4.76L225.9,61.79l6.14,16,14.11-5.43L248,77.15l-14.11,5.42,3.86,10.06,16.45-6.32L256,91.07Z"/><path d="M261.63,44.48,268.19,43c8.87-2,17.32,3.18,19.2,11.69a15.66,15.66,0,0,1-4.53,14.77l11.19,12.08-5.74,1.26-9.68-10.43a17.74,17.74,0,0,1-3.38,1.21l-1.88.45,2.54,11.48-5,1.1Zm10.65,24.61,1.82-.4a10.86,10.86,0,0,0,8.31-12.86c-1.28-5.8-6.91-9.19-13.12-7.82l-1.59.35Z"/><path d="M310.53,36.2l4.21,43-5.08.5-4.21-43Z"/><path d="M332.3,47.9a13.2,13.2,0,0,1,26.4.7l-.8,30.08-5.1-.14.27-10.1L336.87,68l-.27,10.11L331.5,78Zm4.7,15,16.2.43.4-14.88A8.11,8.11,0,0,0,337.39,48Z"/><path d="M407.37,64.45C411.25,53,423.69,46.37,435.29,50.3S452.75,67,448.87,78.5s-16.32,18.11-27.93,14.19S403.48,75.94,407.37,64.45Zm15.19,23.46c9,3,18.52-2.2,21.51-11s-1.43-18.74-10.4-21.78-18.5,2.15-21.49,11S413.59,84.87,422.56,87.91Z"/><path d="M479.62,70.21l-18.44,33.38,15.42,8.52-2.46,4.46-19.88-11,20.89-37.84Z"/><path d="M516.09,93.1l-25.21,35.12-4.14-3,25.2-35.11Z"/><path d="M532.17,105.18l3.85,3.56-12.22,28,26.75-14.51,3.86,3.56L514,147.61l-.2-.18Z"/><path d="M554.87,145.71a13.19,13.19,0,0,1,16.57,20.53L548,185.12l-3.2-4,7.86-6.35-10.17-12.6-7.86,6.34-3.2-4ZM546.5,159l10.17,12.6,11.57-9.34a8.1,8.1,0,0,0-10.17-12.6Z"/><path d="M206.82,562c10.63,6,15.39,18.6,9.33,29.65s-19.11,13.94-30,8.33l-5.26-2.89,20.8-37.89Zm-3.08,4.12-15.9,28.95.72.39c8.69,4.54,18.66,1.86,23.12-6.26s1.44-17.79-7.36-22.76Z"/><path d="M232.39,589.66a13.2,13.2,0,0,1,24.83,9L247,626.93l-4.8-1.73,3.44-9.51-15.24-5.51L227,619.69,222.16,618Zm-.26,15.72,15.24,5.52,5.06-14a8.1,8.1,0,0,0-15.24-5.51Z"/><path d="M282.19,591.37l-7.39,37.4,17.28,3.41-1,5-22.27-4.4,8.37-42.4Z"/><path d="M353.34,620.63a60.11,60.11,0,0,0,4.16-7.31c1.94-4.54,1.06-9.3-2.45-11.21a7,7,0,0,0-4.15-.78,10.12,10.12,0,0,0-6.76,4.34l-4.17-2.9a15.26,15.26,0,0,1,10.24-6.48A11.63,11.63,0,0,1,363.35,606c1.14,5.71-.81,9.59-5.73,17.36-.25.38-1.33,2.22-3.28,5.52-1.86,3.15-3.08,5.24-3.75,6.33l13.71-.74.26,5.06-23.5,1.22Q352.51,622,353.34,620.63Z"/><path d="M379.54,616.22c-1.25-6.12-.9-11.61,1.1-16.42,1.9-4.55,5.15-7.64,9.2-8.47s8.28.74,11.81,4.17c3.7,3.64,6.18,8.56,7.44,14.67s.89,11.58-1.08,16.39c-1.9,4.54-5.12,7.63-9.23,8.47s-8.25-.74-11.78-4.17Q381.41,625.4,379.54,616.22Zm10.34,10.2c2.43,2.73,5.27,4.12,7.87,3.59s4.67-2.93,5.84-6.4a26.2,26.2,0,0,0-4.85-23.67c-2.43-2.73-5.27-4.09-7.87-3.56s-4.67,2.9-5.84,6.37a26.15,26.15,0,0,0,4.85,23.67Z"/><path d="M436.44,603.4a61.41,61.41,0,0,0,1.79-8.22c.5-4.91-1.75-9.19-5.67-10a6.92,6.92,0,0,0-4.19.49,10.09,10.09,0,0,0-5.16,6.15l-4.84-1.53a15.22,15.22,0,0,1,7.85-9.23,11.61,11.61,0,0,1,15.41,5.35c2.79,5.11,2.08,9.39-.3,18.27-.13.44-.62,2.51-1.49,6.25-.85,3.55-1.39,5.91-1.71,7.15L451,613.33l1.75,4.76-22.07,8.14Q436,604.92,436.44,603.4Z"/><path d="M460.16,591.36c-3-5.46-4.32-10.81-3.84-16,.46-4.9,2.63-8.83,6.25-10.83s8.12-1.76,12.52.46c4.62,2.38,8.46,6.32,11.47,11.79s4.31,10.79,3.86,16c-.46,4.91-2.61,8.82-6.28,10.84s-8.1,1.75-12.49-.47Q464.68,599.57,460.16,591.36ZM473.07,598c3.14,1.88,6.27,2.36,8.59,1.08s3.58-4.19,3.66-7.85a26.13,26.13,0,0,0-11.68-21.15c-3.14-1.88-6.25-2.34-8.58-1.05s-3.59,4.15-3.67,7.82A26.19,26.19,0,0,0,473.07,598Z"/><path d="M323.74,208.17H280.55V467.3h43.19V424.11h0a108,108,0,0,0,0-215.94Zm0,172.75h0V251.36h0a64.78,64.78,0,0,1,0,129.56Z"/></svg>