<svg xmlns="http://www.w3.org/2000/svg" version="1.1" xmlns:xlink="http://www.w3.org/1999/xlink" xmlns:svgjs="http://svgjs.dev/svgjs" width="1000" height="1000"><g clip-path="url(#SvgjsClipPath1091)"><rect width="1000" height="1000" fill="#ffffff"></rect><g transform="matrix(25.559105431309902,0,0,25.559105431309902,100,116.61341853035145)"><svg xmlns="http://www.w3.org/2000/svg" version="1.1" xmlns:xlink="http://www.w3.org/1999/xlink" xmlns:svgjs="http://svgjs.dev/svgjs" width="31.3" height="30"><svg version="1.1" id="Capa_1" xmlns="http://www.w3.org/2000/svg" xmlns:xlink="http://www.w3.org/1999/xlink" x="0px" y="0px" viewBox="0 0 31.3 30" style="enable-background:new 0 0 31.3 30;" xml:space="preserve">
<g>
	<path d="M29.6,8c-0.1-0.3-0.3-0.5-0.4-0.8l-0.2-0.4l-0.3-0.4c-0.3-0.5-0.7-1-1.1-1.4c-0.8-0.9-1.7-1.7-2.6-2.4
		c-1-0.7-2-1.2-3.1-1.7c-1.1-0.4-2.2-0.7-3.4-0.9C17.3,0,16.1,0,15,0.1c-1.1,0.1-2.2,0.4-3.3,0.8c2.2-0.4,4.4-0.3,6.5,0.2
		c1,0.3,2,0.7,2.9,1.2c0.9,0.5,1.8,1.1,2.5,1.8c0.8,0.7,1.5,1.5,2.1,2.3c0.3,0.4,0.6,0.8,0.8,1.3l0.2,0.3l0.2,0.3
		c0.1,0.2,0.2,0.5,0.3,0.7c0.4,0.9,0.7,1.9,0.9,2.9l0.1,0.4l0.1,0.4c0,0.2,0.1,0.5,0.1,0.7c0,0.2,0,0.5,0.1,0.7l0,0.8
		c0,7.6-5.7,13.6-12.8,13.6S2.8,22.6,2.8,15c0-1.6,0.3-3.2,0.9-4.7C4,9.6,4.4,8.9,4.8,8.2c0.4-0.7,1-1.3,1.5-1.9
		c1.1-1.2,2.6-2.1,4.1-2.7c1.6-0.6,3.3-0.9,5.1-0.8C13.9,2.1,12,2,10.2,2.4C8.3,2.7,6.5,3.5,5,4.7C4.2,5.3,3.5,6,2.9,6.8
		C2.3,7.5,1.7,8.4,1.3,9.2C0.4,11-0.1,13,0,15c0,8.4,7,15,15.7,15c8.6,0,15.7-6.6,15.7-15C31.3,12.6,30.7,10.1,29.6,8z"></path>
</g>
</svg></svg></g></g><defs><clipPath id="SvgjsClipPath1091"><rect width="1000" height="1000" x="0" y="0" rx="350" ry="350"></rect></clipPath></defs></svg>