<?xml version="1.0" encoding="utf-8"?>
<!-- Generator: Adobe Illustrator 25.4.1, SVG Export Plug-In . SVG Version: 6.00 Build 0)  -->
<svg version="1.1" id="Capa_1" xmlns="http://www.w3.org/2000/svg" xmlns:xlink="http://www.w3.org/1999/xlink" x="0px" y="0px"
	 viewBox="0 0 143 137" style="enable-background:new 0 0 143 137;" xml:space="preserve">
<g>
	<path d="M135,36.7c-0.7-1.2-1.3-2.4-2-3.6l-1.1-1.7l-1.1-1.7c-1.5-2.3-3.3-4.4-5-6.4c-3.6-4.1-7.7-7.7-12.1-10.8
		c-4.4-3.1-9.2-5.7-14.1-7.6c-4.9-2-10.1-3.3-15.3-3.9C79,0.2,73.7,0.1,68.6,0.8c-5.1,0.6-10.1,1.9-14.9,3.7
		c10-1.9,20.1-1.4,29.5,1.1c4.7,1.3,9.2,3.2,13.4,5.4c4.2,2.3,8.1,5.1,11.6,8.2c3.5,3.1,6.6,6.7,9.4,10.5c1.3,1.9,2.6,3.9,3.7,5.9
		l0.9,1.5l0.8,1.5c0.5,1,1,2.1,1.5,3.1c1.9,4.2,3.2,8.6,4.1,13.1l0.3,1.7l0.3,1.7c0.2,1.1,0.3,2.3,0.4,3.4c0.1,1.1,0.2,2.3,0.3,3.4
		l0.1,3.4c0,34.5-26.2,61.8-58.5,61.8c-32.3,0-58.5-27.3-58.5-61.8c0.2-7.2,1.5-14.4,4.2-21.2c1.4-3.4,3-6.7,5.1-9.7
		c2-3.1,4.4-6,6.9-8.7c5.2-5.4,11.7-9.7,18.9-12.5c7.2-2.9,15.2-4.1,23.4-3.9C63.7,9.9,55,9.3,46.5,11c-8.5,1.6-16.7,5.3-23.6,10.7
		c-3.5,2.7-6.7,5.8-9.5,9.3c-2.8,3.5-5.3,7.3-7.3,11.3c-4,8.1-6.1,17.2-6,26.2c0,38.1,32,68.2,71.4,68.2c39.4,0,71.4-30.1,71.4-68.2
		C142.9,57.4,140.1,46.4,135,36.7z"/>
</g>
</svg>
