<?xml version="1.0" encoding="utf-8"?>
<!-- Generator: Adobe Illustrator 25.4.1, SVG Export Plug-In . SVG Version: 6.00 Build 0)  -->
<svg version="1.1" id="Layer_1" xmlns="http://www.w3.org/2000/svg" xmlns:xlink="http://www.w3.org/1999/xlink" x="0px" y="0px"
	 viewBox="0 0 218 37" style="enable-background:new 0 0 218 37;" xml:space="preserve">
<g>
	<g>
		<g>
			<path d="M14.57,19.36h-2.65v-1.75c-1.02,1.33-2.43,1.99-4.23,1.99c-2.64,0-4.63-1.01-5.98-3.03C0.57,14.85,0,12.6,0,9.84
				c0-2.8,0.58-5.06,1.75-6.77c1.37-2,3.39-3,6.09-3c1.4,0,2.63,0.34,3.68,1.01c0.84,0.51,1.79,1.38,2.87,2.62l-2.24,1.83
				c-1.38-1.75-2.82-2.62-4.31-2.62c-3.29,0-4.94,2.31-4.94,6.93s1.6,6.93,4.8,6.93c1.37,0,2.41-0.55,3.14-1.64
				c0.66-0.96,0.98-2.17,0.98-3.6H7.07V8.69h7.5V19.36z"/>
			<path d="M38.02,19.36h-3.36l-3.77-6.74c-0.49-0.87-1.12-1.31-1.88-1.31h-2.26v8.05h-2.89V0.31h6.82c1.91,0,3.45,0.43,4.61,1.28
				C36.56,2.58,37.2,4,37.2,5.85c0,1.29-0.35,2.4-1.06,3.31c-0.71,0.92-1.7,1.53-2.97,1.82L38.02,19.36z M34.17,5.85
				c0-1.82-1.16-2.73-3.49-2.73h-3.93v5.54h3.93C33.01,8.67,34.17,7.73,34.17,5.85z"/>
			<path d="M60.02,11.28c0,5.55-2.38,8.33-7.15,8.33s-7.15-2.78-7.15-8.33V0.31h2.89v10.97c0,1.76,0.25,3.07,0.76,3.9
				c0.66,1.05,1.82,1.58,3.49,1.58s2.84-0.53,3.49-1.58c0.51-0.84,0.76-2.15,0.76-3.93V0.31h2.89V11.28z"/>
			<path d="M82.51,5.88c0,1.91-0.62,3.36-1.85,4.34c-1.13,0.89-2.67,1.34-4.64,1.34h-4.5v7.81h-2.89V0.31h7.26
				c2,0,3.57,0.42,4.7,1.26C81.86,2.51,82.51,3.95,82.51,5.88z M79.61,5.88c0-1.11-0.37-1.87-1.12-2.29
				c-0.54-0.31-1.42-0.46-2.62-0.46h-4.37v5.76h4.37C78.37,8.88,79.61,7.88,79.61,5.88z"/>
			<path d="M105.59,9.84c0,2.8-0.58,5.06-1.75,6.77c-1.36,2-3.4,3-6.11,3c-2.69,0-4.73-1-6.11-3c-1.16-1.71-1.75-3.97-1.75-6.77
				c0-2.8,0.58-5.06,1.75-6.77c1.38-2,3.42-3,6.11-3c2.71,0,4.75,1,6.11,3C105.01,4.78,105.59,7.04,105.59,9.84z M102.7,9.84
				c0-4.62-1.66-6.93-4.97-6.93c-3.31,0-4.97,2.31-4.97,6.93s1.66,6.93,4.97,6.93C101.05,16.77,102.7,14.46,102.7,9.84z"/>
		</g>
		<g>
			<path d="M141.17,9.84c0,2.8-0.58,5.06-1.75,6.77c-1.36,2-3.4,3-6.11,3c-2.69,0-4.73-1-6.11-3c-1.16-1.71-1.75-3.97-1.75-6.77
				c0-2.8,0.58-5.06,1.75-6.77c1.38-2,3.42-3,6.11-3c2.71,0,4.75,1,6.11,3C140.59,4.78,141.17,7.04,141.17,9.84z M138.28,9.84
				c0-4.62-1.66-6.93-4.97-6.93c-3.31,0-4.97,2.31-4.97,6.93s1.66,6.93,4.97,6.93C136.62,16.77,138.28,14.46,138.28,9.84z"/>
			<path d="M161.45,19.36H149.9V0.31h2.87v16.24h8.68V19.36z"/>
			<path d="M172.47,19.36h-2.97V0.31h2.97V19.36z"/>
			<path d="M195.92,0.31l-6.3,19.05h-2.51l-6.3-19.05h3.06l4.5,14.19l4.53-14.19H195.92z"/>
			<path d="M218,19.36h-3.11l-2.13-5.35h-7.37l-2.13,5.35h-3.11l7.56-19.05h2.73L218,19.36z M211.67,11.26l-2.59-6.55l-2.59,6.55
				H211.67z"/>
		</g>
	</g>
	<g>
		<path d="M67.77,36.8h-1.28v-3.75h-3.76v3.75h-1.28v-8.41h1.28v3.46h3.76v-3.46h1.28V36.8z"/>
		<path d="M78.56,32.6c0,1.24-0.26,2.23-0.77,2.99c-0.6,0.88-1.5,1.33-2.7,1.33c-1.19,0-2.09-0.44-2.7-1.33
			c-0.51-0.75-0.77-1.75-0.77-2.99c0-1.24,0.26-2.23,0.77-2.99c0.61-0.88,1.51-1.33,2.7-1.33c1.2,0,2.1,0.44,2.7,1.33
			C78.31,30.36,78.56,31.36,78.56,32.6z M77.29,32.6c0-2.04-0.73-3.06-2.19-3.06c-1.46,0-2.19,1.02-2.19,3.06
			c0,2.04,0.73,3.06,2.19,3.06C76.56,35.66,77.29,34.64,77.29,32.6z"/>
		<path d="M88.56,34.33c0,0.8-0.32,1.45-0.96,1.93c-0.59,0.45-1.29,0.68-2.12,0.68c-1.95,0-3.09-0.92-3.42-2.76l1.26-0.22
			c0.12,0.62,0.35,1.06,0.69,1.33c0.34,0.27,0.83,0.4,1.46,0.4c0.47,0,0.87-0.1,1.21-0.31c0.4-0.25,0.6-0.59,0.6-1.04
			c0-0.55-0.42-0.95-1.26-1.2c-0.79-0.22-1.57-0.45-2.35-0.67c-0.84-0.39-1.27-1.01-1.27-1.87c0-0.74,0.3-1.31,0.89-1.72
			c0.52-0.35,1.17-0.53,1.94-0.53c0.8,0,1.45,0.16,1.93,0.47c0.48,0.31,0.9,0.83,1.24,1.55l-1.16,0.53
			c-0.27-0.51-0.53-0.86-0.78-1.04c-0.26-0.18-0.67-0.26-1.23-0.26c-1.04,0-1.55,0.33-1.55,1c0,0.43,0.42,0.76,1.26,0.99
			c1.35,0.37,2.13,0.61,2.35,0.74C88.14,32.74,88.56,33.42,88.56,34.33z"/>
		<path d="M98.55,30.85c0,0.84-0.27,1.48-0.82,1.91c-0.5,0.39-1.18,0.59-2.05,0.59H93.7v3.45h-1.28v-8.41h3.2
			c0.88,0,1.57,0.19,2.07,0.55C98.26,29.36,98.55,30,98.55,30.85z M97.27,30.85c0-0.49-0.16-0.83-0.49-1.01
			c-0.24-0.14-0.63-0.2-1.16-0.2H93.7v2.54h1.93C96.72,32.17,97.27,31.73,97.27,30.85z"/>
		<path d="M103.66,36.8h-1.31v-8.41h1.31V36.8z"/>
		<path d="M113.58,29.63h-2.52v7.17h-1.28v-7.17h-2.52v-1.24h6.31V29.63z"/>
		<path d="M123.27,36.8h-1.37l-0.94-2.36h-3.25l-0.94,2.36h-1.37l3.34-8.41h1.2L123.27,36.8z M120.48,33.22l-1.14-2.89l-1.14,2.89
			H120.48z"/>
		<path d="M131.8,36.8h-5.1v-8.41h1.27v7.17h3.83V36.8z"/>
		<path d="M136.67,36.8h-1.31v-8.41h1.31V36.8z"/>
		<path d="M146.59,29.63h-2.52v7.17h-1.28v-7.17h-2.52v-1.24h6.31V29.63z"/>
		<path d="M156.54,28.39l-2.79,5.6v2.81h-1.29v-2.83l-2.79-5.58h1.42l2,4.04l2.04-4.04H156.54z"/>
	</g>
</g>
</svg>
