<?xml version="1.0" encoding="utf-8"?>
<!-- Generator: Adobe Illustrator 25.4.1, SVG Export Plug-In . SVG Version: 6.00 Build 0)  -->
<svg version="1.1" id="Layer_1" xmlns="http://www.w3.org/2000/svg" xmlns:xlink="http://www.w3.org/1999/xlink" x="0px" y="0px"
	 viewBox="0 0 100 96" style="enable-background:new 0 0 100 96;" xml:space="preserve">
<g>
	<path d="M94.46,25.72c-0.46-0.84-0.91-1.69-1.42-2.5l-0.75-1.23l-0.8-1.19c-1.08-1.58-2.28-3.07-3.52-4.51
		c-2.51-2.87-5.38-5.39-8.45-7.58c-3.06-2.2-6.41-3.96-9.88-5.34c-3.46-1.39-7.09-2.3-10.74-2.75c-3.65-0.45-7.32-0.5-10.91-0.06
		c-3.59,0.45-7.1,1.3-10.4,2.6c6.97-1.33,14.09-1.01,20.66,0.77c3.29,0.88,6.42,2.22,9.36,3.81c2.94,1.61,5.67,3.54,8.14,5.75
		c2.47,2.2,4.65,4.68,6.57,7.32c0.93,1.34,1.83,2.7,2.61,4.13l0.6,1.06l0.55,1.09c0.38,0.71,0.69,1.46,1.03,2.2
		c1.31,2.96,2.24,6.05,2.89,9.18l0.23,1.18l0.19,1.19c0.15,0.79,0.22,1.58,0.31,2.38c0.1,0.79,0.11,1.59,0.18,2.39L90.98,48
		c0,24.18-18.35,43.3-40.98,43.3S9.02,72.19,9.02,48c0.11-5.07,1.07-10.11,2.97-14.86c0.95-2.37,2.12-4.67,3.54-6.82
		c1.39-2.18,3.05-4.19,4.86-6.08c3.65-3.77,8.16-6.76,13.21-8.77c5.05-2.01,10.66-2.89,16.41-2.7c-5.47-1.81-11.56-2.2-17.47-1.06
		c-5.92,1.11-11.67,3.71-16.55,7.52c-2.47,1.88-4.68,4.09-6.68,6.5C7.31,24.14,5.6,26.8,4.2,29.63C1.41,35.28-0.1,41.66,0.01,48
		c0,26.67,22.39,47.74,50,47.74c27.61,0,50-21.08,50-47.74C99.99,40.26,98.07,32.5,94.46,25.72z"/>
</g>
</svg>
