<?xml version="1.0" encoding="utf-8"?>
<!-- Generator: Adobe Illustrator 25.4.1, SVG Export Plug-In . SVG Version: 6.00 Build 0)  -->
<svg version="1.1" id="Capa_1" xmlns="http://www.w3.org/2000/svg" xmlns:xlink="http://www.w3.org/1999/xlink" x="0px" y="0px"
	 viewBox="0 0 114 30" style="enable-background:new 0 0 114 30;" xml:space="preserve">
<g>
	<g>
		<path d="M56,0.2h2.8v29.7H56V0.2z"/>
		<path d="M86.9,0.2c0.3,0.6,0.4,1.3,0.1,2h0l-9.6,22.6L67,0.2h-3.1l12.6,29.7h0.3L89.3,0.2H86.9z"/>
		<path d="M48.8,27.8c-0.7,0.6-1.6,0.6-2.3,0.6l0,0h-7.4V0.2h-2.8v29.7h13v-2.4L48.8,27.8z"/>
		<path d="M29.5,8.1c-0.1-0.3-0.3-0.5-0.4-0.8l-0.2-0.4l-0.2-0.4c-0.3-0.5-0.7-1-1.1-1.4c-0.8-0.9-1.7-1.7-2.6-2.4
			c-1-0.7-2-1.2-3.1-1.7c-1.1-0.4-2.2-0.7-3.3-0.9c-1.1-0.1-2.3-0.2-3.4,0c-1.1,0.1-2.2,0.4-3.2,0.8c2.2-0.4,4.4-0.3,6.4,0.2
			c1,0.3,2,0.7,2.9,1.2C22,3,22.9,3.6,23.7,4.3c0.8,0.7,1.4,1.5,2,2.3C26,7,26.3,7.4,26.5,7.8l0.2,0.3l0.2,0.3
			C27,8.7,27.1,9,27.2,9.2c0.4,0.9,0.7,1.9,0.9,2.9l0.1,0.4l0.1,0.4c0,0.2,0.1,0.5,0.1,0.7c0,0.2,0,0.5,0.1,0.7l0,0.7
			c0,7.5-5.7,13.5-12.7,13.5S2.9,22.5,2.9,15c0-1.6,0.3-3.1,0.9-4.6C4.1,9.6,4.5,8.9,5,8.3C5.4,7.6,5.9,7,6.5,6.4
			C7.6,5.2,9,4.3,10.6,3.6c1.6-0.6,3.3-0.9,5.1-0.8c-1.7-0.6-3.6-0.7-5.4-0.3C8.4,2.8,6.6,3.6,5.1,4.8C4.3,5.4,3.6,6.1,3,6.8
			C2.4,7.6,1.9,8.4,1.4,9.3C0.6,11,0.1,13,0.1,15c0,8.3,7,14.8,15.5,14.8c8.6,0,15.5-6.5,15.5-14.8C31.2,12.6,30.6,10.2,29.5,8.1z"
			/>
		<path d="M101.3,0.2h-3.1v0c0.4,0.9,0.4,2,0,2.9L86.9,29.8h2.5c-0.3-0.6-0.4-1.3-0.1-2h0l3.6-8.6h13.4l4.5,10.6h3.1L101.3,0.2z
			 M93.4,17.9l6.1-14.5l6.1,14.5H93.4z"/>
	</g>
</g>
</svg>
