<?xml version="1.0" encoding="utf-8"?>
<!-- Generator: Adobe Illustrator 25.4.1, SVG Export Plug-In . SVG Version: 6.00 Build 0)  -->
<svg version="1.1" id="Layer_1" xmlns="http://www.w3.org/2000/svg" xmlns:xlink="http://www.w3.org/1999/xlink" x="0px" y="0px"
	 viewBox="0 0 184 48" style="enable-background:new 0 0 184 48;" xml:space="preserve">
<g>
	<g>
		<path d="M90.32,0.07h4.52v47.86h-4.52V0.07z"/>
		<path d="M140.16,0.07c0.56,0.98,0.64,2.16,0.2,3.2h0l-15.43,36.46L108.15,0.07h-5.07l20.25,47.86h0.54l20.25-47.86H140.16z"/>
		<path d="M78.73,44.68c-1.18,0.9-2.52,1.04-3.7,1.03l0.02,0H63.13V0.07h-4.52v47.86H79.6v-3.92L78.73,44.68z"/>
		<path d="M47.6,12.83c-0.23-0.42-0.45-0.85-0.71-1.25l-0.38-0.61l-0.4-0.6c-0.54-0.79-1.14-1.54-1.76-2.26
			c-1.26-1.44-2.7-2.7-4.23-3.8c-1.53-1.1-3.21-1.99-4.95-2.68c-1.74-0.69-3.55-1.15-5.38-1.38C27.94,0.02,26.1,0,24.3,0.22
			c-1.8,0.23-3.56,0.65-5.21,1.3c3.5-0.66,7.06-0.51,10.36,0.38c1.65,0.44,3.22,1.11,4.69,1.91c1.47,0.81,2.84,1.77,4.08,2.88
			c1.24,1.1,2.33,2.35,3.3,3.67c0.47,0.67,0.92,1.35,1.31,2.07l0.3,0.53l0.27,0.54c0.19,0.36,0.35,0.73,0.51,1.1
			c0.65,1.48,1.12,3.03,1.45,4.6l0.12,0.59l0.09,0.59c0.07,0.39,0.11,0.79,0.16,1.19c0.05,0.4,0.06,0.8,0.09,1.2L45.85,24
			c0,12.12-9.2,21.7-20.54,21.7S4.77,36.12,4.77,24c0.05-2.54,0.53-5.07,1.49-7.45c0.48-1.19,1.06-2.34,1.77-3.42
			c0.7-1.09,1.53-2.1,2.44-3.05c1.83-1.89,4.09-3.39,6.62-4.4c2.53-1.01,5.34-1.45,8.22-1.35c-2.74-0.9-5.79-1.1-8.76-0.53
			c-2.97,0.56-5.85,1.86-8.3,3.77c-1.24,0.94-2.35,2.05-3.35,3.26c-0.99,1.21-1.85,2.55-2.55,3.96c-1.4,2.83-2.16,6.03-2.1,9.21
			c0,13.37,11.22,23.93,25.06,23.93c13.84,0,25.06-10.56,25.06-23.93C50.37,20.12,49.4,16.23,47.6,12.83z"/>
		<path d="M163.5,0.07h-5.07v0c0.63,1.5,0.63,3.19,0,4.69l-18.27,43.17h3.97c-0.56-0.98-0.64-2.16-0.2-3.2h0l5.85-13.83h21.69
			l7.21,17.03h5.07L163.5,0.07z M150.73,28.68l9.9-23.4l9.9,23.4H150.73z"/>
	</g>
</g>
</svg>
