<?xml version="1.0" encoding="utf-8"?>
<!-- Generator: Adobe Illustrator 25.4.1, SVG Export Plug-In . SVG Version: 6.00 Build 0)  -->
<svg version="1.1" id="Layer_1" xmlns="http://www.w3.org/2000/svg" xmlns:xlink="http://www.w3.org/1999/xlink" x="0px" y="0px"
	 viewBox="0 0 214 93" style="enable-background:new 0 0 214 93;" xml:space="preserve">
<g>
	<g>
		<path d="M55.87,92.77v-8.81h7.26v1.3h-5.97v2.3h3v1.28h-3v2.65h6.19v1.29H55.87z"/>
		<path d="M77.72,92.77l-5.32-6.71v6.71h-1.26v-8.81h1.25l5.31,6.74v-6.74H79v8.81H77.72z"/>
		<path d="M91.84,92.98c-2.67,0-4.74-2.09-4.74-4.75c0-2.59,2.22-4.54,4.75-4.54c2.61,0,4.74,2.04,4.74,4.68
			C96.59,90.98,94.39,92.98,91.84,92.98z M91.84,85c-1.96,0-3.47,1.41-3.47,3.39c0,1.9,1.64,3.3,3.49,3.3
			c1.89,0,3.46-1.47,3.46-3.38C95.31,86.37,93.72,85,91.84,85z"/>
		<path d="M108.07,85.25v7.53h-1.25v-7.53h-3.14v-1.29h7.5v1.29H108.07z"/>
		<path d="M118.92,92.77v-8.81h7.26v1.3h-5.97v2.3h3v1.28h-3v2.65h6.19v1.29H118.92z"/>
		<path d="M138.49,92.98c-2.72,0-4.96-1.82-4.96-4.64c0-2.67,2.07-4.6,4.7-4.6c1.63,0,3.1,0.69,4.25,1.81l-0.96,0.82
			c-0.94-0.79-1.96-1.34-3.23-1.34c-1.94,0-3.51,1.34-3.51,3.33c0,2.14,1.8,3.32,3.78,3.32c1.38,0,2.24-0.46,3.2-1.42l0.85,0.92
			C141.56,92.44,140.1,92.98,138.49,92.98z"/>
		<path d="M156.69,92.77l-1.26-2.87h-3.96l-1.31,2.87h-1.39l4.01-8.8h1.42l3.95,8.8H156.69z M153.45,85.53l-1.4,3.07h2.79
			L153.45,85.53z"/>
	</g>
	<g>
		<path d="M105.05,0.02h5.27V55.8h-5.27V0.02z"/>
		<path d="M163.12,0.02c0.66,1.14,0.74,2.52,0.23,3.73h0l-17.98,42.48L125.82,0.02h-5.91l23.6,55.78h0.63l23.6-55.78H163.12z"/>
		<path d="M91.53,52.01c-1.38,1.05-2.94,1.21-4.31,1.19l0.02,0H73.36V0.02h-5.27V55.8h24.46v-4.57L91.53,52.01z"/>
		<path d="M55.26,14.89c-0.27-0.49-0.53-0.99-0.83-1.46l-0.44-0.72l-0.47-0.69c-0.63-0.92-1.33-1.79-2.06-2.64
			c-1.47-1.67-3.14-3.15-4.94-4.42c-1.79-1.29-3.75-2.31-5.77-3.12c-2.02-0.81-4.14-1.34-6.27-1.61c-2.13-0.26-4.28-0.29-6.37-0.03
			c-2.1,0.26-4.15,0.76-6.08,1.52c4.07-0.77,8.23-0.59,12.07,0.45c1.92,0.51,3.75,1.29,5.47,2.23c1.72,0.94,3.31,2.07,4.75,3.36
			c1.44,1.29,2.72,2.74,3.84,4.28c0.54,0.78,1.07,1.58,1.53,2.41l0.35,0.62l0.32,0.63c0.22,0.42,0.4,0.85,0.6,1.28
			c0.76,1.73,1.31,3.53,1.69,5.36l0.14,0.69l0.11,0.69c0.09,0.46,0.13,0.93,0.18,1.39c0.06,0.46,0.07,0.93,0.1,1.4l0.04,1.41
			c0,14.12-10.72,25.29-23.94,25.29S5.35,42.03,5.35,27.9c0.06-2.96,0.62-5.91,1.73-8.68c0.55-1.38,1.24-2.73,2.07-3.99
			c0.81-1.27,1.78-2.45,2.84-3.55c2.13-2.2,4.77-3.95,7.72-5.12c2.95-1.17,6.22-1.69,9.58-1.58c-3.2-1.05-6.75-1.28-10.21-0.62
			c-3.46,0.65-6.82,2.17-9.67,4.39c-1.44,1.1-2.73,2.39-3.9,3.79c-1.16,1.41-2.16,2.97-2.97,4.62C0.9,20.48,0.02,24.2,0.08,27.9
			c0,15.58,13.08,27.89,29.2,27.89c16.13,0,29.2-12.31,29.2-27.89C58.49,23.38,57.36,18.85,55.26,14.89z"/>
		<path d="M190.32,0.02h-5.91v0c0.74,1.75,0.74,3.72,0,5.47L163.12,55.8h4.63c-0.66-1.14-0.74-2.52-0.23-3.73h0l6.82-16.11h25.27
			l8.4,19.84h5.91L190.32,0.02z M175.44,33.36l11.54-27.27l11.54,27.27H175.44z"/>
	</g>
</g>
</svg>
