<?xml version="1.0" encoding="utf-8"?>
<!-- Generator: Adobe Illustrator 25.4.1, SVG Export Plug-In . SVG Version: 6.00 Build 0)  -->
<svg version="1.1" id="Layer_1" xmlns="http://www.w3.org/2000/svg" xmlns:xlink="http://www.w3.org/1999/xlink" x="0px" y="0px"
	 viewBox="0 0 192 184" style="enable-background:new 0 0 192 184;" xml:space="preserve">
<g>
	<path d="M181.69,49.06c-0.9-1.62-1.75-3.26-2.74-4.82l-1.45-2.36l-1.55-2.29c-2.08-3.05-4.4-5.91-6.78-8.7
		c-4.84-5.52-10.37-10.38-16.28-14.6c-5.9-4.25-12.36-7.64-19.04-10.29c-6.67-2.67-13.66-4.43-20.7-5.31
		c-7.03-0.87-14.11-0.96-21.03-0.11c-6.91,0.87-13.68,2.5-20.05,5.01c13.44-2.55,27.15-1.95,39.82,1.48
		c6.35,1.7,12.38,4.27,18.05,7.35c5.66,3.11,10.93,6.82,15.68,11.08c4.76,4.24,8.97,9.03,12.67,14.11c1.8,2.59,3.53,5.2,5.04,7.95
		l1.16,2.04l1.06,2.09c0.74,1.38,1.33,2.82,1.98,4.23c2.52,5.7,4.32,11.66,5.57,17.7l0.45,2.27l0.36,2.28
		c0.29,1.52,0.41,3.05,0.6,4.58c0.2,1.53,0.22,3.07,0.34,4.61l0.15,4.64c-0.01,46.61-35.36,83.44-78.98,83.44
		s-78.98-36.83-78.99-83.44c0.21-9.77,2.06-19.48,5.71-28.63c1.83-4.56,4.08-8.99,6.82-13.15c2.68-4.2,5.88-8.08,9.37-11.72
		c7.03-7.26,15.74-13.03,25.46-16.91c9.73-3.87,20.54-5.58,31.63-5.21c-10.54-3.48-22.27-4.23-33.68-2.05
		c-11.41,2.14-22.49,7.16-31.9,14.49c-4.75,3.62-9.02,7.89-12.88,12.52c-3.83,4.66-7.12,9.79-9.81,15.24
		c-5.39,10.89-8.29,23.18-8.09,35.4c0.01,51.39,43.14,92.01,96.35,92.01c53.21,0,96.35-40.62,96.36-92.01
		C192.35,77.09,188.64,62.14,181.69,49.06z"/>
	<g>
		<path d="M150.96,81.08h-2.31c0.29,0.68,0.29,1.46,0,2.14l-8.33,19.69l0,0h0h1.16h0.71c-0.26-0.44-0.29-0.98-0.09-1.46l2.66-6.28
			h9.86l3.27,7.74h2.31L150.96,81.08z M145.21,94.1l4.47-10.57l4.47,10.57H145.21z"/>
		<path d="M90.92,82.93l0.4-0.3c0.54-0.41,1.14-0.47,1.68-0.47l0,0h2.69v20.76h2.03V82.16h2.69l0,0c0.54,0,1.14,0.06,1.68,0.47
			l0.4,0.3v-1.84H90.92V82.93z"/>
		<path d="M60.76,81.48c0.41,0.54,0.47,1.14,0.47,1.68l0,0v14.3L49.46,81.08h-2.85l0.45,0.63c0.34,0.47,0.52,1.03,0.52,1.61v19.59
			h1.84l-0.3-0.4c-0.41-0.54-0.47-1.14-0.47-1.68l0,0V83.93l13.64,18.98V81.08h-1.84L60.76,81.48z"/>
		<path d="M106.39,102.92h10.14v-1.07h-8.1V90.86h7.23v-1.07h-7.23v-7.63h6.04l-0.02,0c0.54,0,1.14,0.06,1.68,0.47l0.4,0.3v-1.84
			h-10.14V102.92z"/>
		<path d="M32.82,102.92h10.14v-1.07h-8.1V90.86h7.23v-1.07h-7.23v-7.63h6.04l-0.02,0c0.54,0,1.14,0.06,1.68,0.47l0.4,0.3v-1.84
			H32.82V102.92z"/>
		<path d="M77.62,80.83c-6.46,0-11.7,5-11.7,11.17c0,6.17,5.24,11.17,11.7,11.17c6.46,0,11.7-5,11.7-11.17
			C89.31,85.83,84.08,80.83,77.62,80.83z M77.62,102.1c-5.34,0-9.66-4.52-9.66-10.1s4.33-10.1,9.66-10.1c5.34,0,9.66,4.52,9.66,10.1
			S82.95,102.1,77.62,102.1z"/>
		<path d="M131.08,102.1c-5.34,0-9.66-4.52-9.66-10.1s4.33-10.1,9.66-10.1c2.25,0.07,4.2,0.87,5.79,2.18l1.1-1.47
			c-2.02-1.06-4.28-1.69-6.89-1.79c-6.46,0-11.7,5-11.7,11.17c0,6.17,5.24,11.17,11.7,11.17v0c2.83,0,5.4-1.15,7.32-3.02l-0.69-0.81
			C135.97,101.04,133.65,102.1,131.08,102.1z"/>
	</g>
</g>
</svg>
